<svg width="1440" height="838" xmlns="http://www.w3.org/2000/svg"><g><path d="M-66.05372705496848,-105.86258352734149L-96.54829155653715,106.60812836140394L17.352810027077794,103.16189970821142Z" fill="#f9ffdf" stroke="#f9ffdf"></path><path d="M-66.05372705496848,-105.86258352734149L17.352810027077794,103.16189970821142L80.05645207129419,-54.969555577263236Z" fill="#feffe1" stroke="#feffe1"></path><path d="M-66.05372705496848,-105.86258352734149L80.05645207129419,-54.969555577263236L180.62386147677898,-53.573206113651395Z" fill="#f5fbe3" stroke="#f5fbe3"></path><path d="M-66.05372705496848,-105.86258352734149L180.62386147677898,-53.573206113651395L378.83298539556563,-75.16754960641265Z" fill="#e4f5df" stroke="#e4f5df"></path><path d="M-66.05372705496848,-105.86258352734149L378.83298539556563,-75.16754960641265L1107.2461238130927,-77.23276088945568Z" fill="#b1e1df" stroke="#b1e1df"></path><path d="M-66.05372705496848,-105.86258352734149L1107.2461238130927,-77.23276088945568L1385.6577781308442,-81.28764409571886Z" fill="#98c5dd" stroke="#98c5dd"></path><path d="M80.05645207129419,-54.969555577263236L17.352810027077794,103.16189970821142L245.82645155489445,40.72261540219188Z" fill="#e7f8d8" stroke="#e7f8d8"></path><path d="M80.05645207129419,-54.969555577263236L245.82645155489445,40.72261540219188L180.62386147677898,-53.573206113651395Z" fill="#e4f4db" stroke="#e4f4db"></path><path d="M180.62386147677898,-53.573206113651395L245.82645155489445,40.72261540219188L378.83298539556563,-75.16754960641265Z" fill="#d3eed7" stroke="#d3eed7"></path><path d="M378.83298539556563,-75.16754960641265L245.82645155489445,40.72261540219188L361.43828644417226,50.0942962244153Z" fill="#c8ead4" stroke="#c8ead4"></path><path d="M378.83298539556563,-75.16754960641265L361.43828644417226,50.0942962244153L485.60295009054244,-38.32655877806246Z" fill="#bce5d9" stroke="#bce5d9"></path><path d="M378.83298539556563,-75.16754960641265L485.60295009054244,-38.32655877806246L644.054830307141,-50.17628327943385Z" fill="#acdfde" stroke="#acdfde"></path><path d="M378.83298539556563,-75.16754960641265L644.054830307141,-50.17628327943385L1107.2461238130927,-77.23276088945568Z" fill="#9bcede" stroke="#9bcede"></path><path d="M485.60295009054244,-38.32655877806246L361.43828644417226,50.0942962244153L495.4453773703426,84.34466329403222Z" fill="#b0e3d6" stroke="#b0e3d6"></path><path d="M485.60295009054244,-38.32655877806246L495.4453773703426,84.34466329403222L644.054830307141,-50.17628327943385Z" fill="#a6dddb" stroke="#a6dddb"></path><path d="M644.054830307141,-50.17628327943385L495.4453773703426,84.34466329403222L657.2922150604427,70.33658081665635Z" fill="#99d9d8" stroke="#99d9d8"></path><path d="M644.054830307141,-50.17628327943385L657.2922150604427,70.33658081665635L844.3882746621966,-33.35427093319595Z" fill="#9bcdd9" stroke="#9bcdd9"></path><path d="M644.054830307141,-50.17628327943385L844.3882746621966,-33.35427093319595L942.8236581198871,-42.595387352630496Z" fill="#98c4da" stroke="#98c4da"></path><path d="M644.054830307141,-50.17628327943385L942.8236581198871,-42.595387352630496L1107.2461238130927,-77.23276088945568Z" fill="#95bbd8" stroke="#95bbd8"></path><path d="M844.3882746621966,-33.35427093319595L657.2922150604427,70.33658081665635L871.2275598943233,18.660730300471187Z" fill="#95c6d6" stroke="#95c6d6"></path><path d="M844.3882746621966,-33.35427093319595L871.2275598943233,18.660730300471187L942.8236581198871,-42.595387352630496Z" fill="#95bcd6" stroke="#95bcd6"></path><path d="M942.8236581198871,-42.595387352630496L871.2275598943233,18.660730300471187L1022.5756328646094,37.20729469321668Z" fill="#94b5d0" stroke="#94b5d0"></path><path d="M942.8236581198871,-42.595387352630496L1022.5756328646094,37.20729469321668L1107.2461238130927,-77.23276088945568Z" fill="#94aace" stroke="#94aace"></path><path d="M1107.2461238130927,-77.23276088945568L1022.5756328646094,37.20729469321668L1170.0028863921762,36.904619140550494Z" fill="#93a1c7" stroke="#93a1c7"></path><path d="M1107.2461238130927,-77.23276088945568L1170.0028863921762,36.904619140550494L1282.3468488268554,-31.003788001835346Z" fill="#9295c4" stroke="#9295c4"></path><path d="M1107.2461238130927,-77.23276088945568L1282.3468488268554,-31.003788001835346L1385.6577781308442,-81.28764409571886Z" fill="#918cc3" stroke="#918cc3"></path><path d="M1282.3468488268554,-31.003788001835346L1170.0028863921762,36.904619140550494L1290.7653677556664,64.55279759131372Z" fill="#8d8dbc" stroke="#8d8dbc"></path><path d="M1282.3468488268554,-31.003788001835346L1290.7653677556664,64.55279759131372L1385.6577781308442,-81.28764409571886Z" fill="#9084bb" stroke="#9084bb"></path><path d="M1385.6577781308442,-81.28764409571886L1290.7653677556664,64.55279759131372L1397.1069042105228,105.14493869617581Z" fill="#8a80b4" stroke="#8a80b4"></path><path d="M1385.6577781308442,-81.28764409571886L1397.1069042105228,105.14493869617581L1527.234176164493,-64.51970734633505Z" fill="#8f80b3" stroke="#8f80b3"></path><path d="M1527.234176164493,-64.51970734633505L1397.1069042105228,105.14493869617581L1515.9188147541136,93.57760101556778Z" fill="#8680ac" stroke="#8680ac"></path><path d="M1527.234176164493,-64.51970734633505L1515.9188147541136,93.57760101556778L1589.208851493895,269.03227533213794Z" fill="#7b80a3" stroke="#7b80a3"></path><path d="M1527.234176164493,-64.51970734633505L1589.208851493895,269.03227533213794L1616.4495979249477,411.09728858806193Z" fill="#617b9d" stroke="#617b9d"></path><path d="M-96.54829155653715,106.60812836140394L-118.81144646555185,867.355195004493L-99.03033116832376,355.95868485979736Z" fill="#9ed7db" stroke="#9ed7db"></path><path d="M-96.54829155653715,106.60812836140394L-99.03033116832376,355.95868485979736L-91.6271823272109,191.0639458335936Z" fill="#cffad9" stroke="#cffad9"></path><path d="M-96.54829155653715,106.60812836140394L-91.6271823272109,191.0639458335936L17.352810027077794,103.16189970821142Z" fill="#e6ffd7" stroke="#e6ffd7"></path><path d="M17.352810027077794,103.16189970821142L-91.6271823272109,191.0639458335936L72.90277403779328,190.25122432038188Z" fill="#e1ffd2" stroke="#e1ffd2"></path><path d="M17.352810027077794,103.16189970821142L72.90277403779328,190.25122432038188L245.82645155489445,40.72261540219188Z" fill="#d8f8d2" stroke="#d8f8d2"></path><path d="M245.82645155489445,40.72261540219188L72.90277403779328,190.25122432038188L203.53967014700174,273.6652364116162Z" fill="#c3f4ca" stroke="#c3f4ca"></path><path d="M245.82645155489445,40.72261540219188L203.53967014700174,273.6652364116162L401.4422606304288,252.94338625855744Z" fill="#aaebc7" stroke="#aaebc7"></path><path d="M245.82645155489445,40.72261540219188L401.4422606304288,252.94338625855744L361.43828644417226,50.0942962244153Z" fill="#b3eacc" stroke="#b3eacc"></path><path d="M361.43828644417226,50.0942962244153L401.4422606304288,252.94338625855744L495.4453773703426,84.34466329403222Z" fill="#a2e5cc" stroke="#a2e5cc"></path><path d="M495.4453773703426,84.34466329403222L401.4422606304288,252.94338625855744L498.6559604667127,211.57439824193716Z" fill="#8ee0cc" stroke="#8ee0cc"></path><path d="M495.4453773703426,84.34466329403222L498.6559604667127,211.57439824193716L657.2922150604427,70.33658081665635Z" fill="#8edcd1" stroke="#8edcd1"></path><path d="M657.2922150604427,70.33658081665635L498.6559604667127,211.57439824193716L730.8870307076722,269.45639345794916Z" fill="#79d4ce" stroke="#79d4ce"></path><path d="M657.2922150604427,70.33658081665635L730.8870307076722,269.45639345794916L775.6698146648705,189.11041505634785Z" fill="#78cccb" stroke="#78cccb"></path><path d="M657.2922150604427,70.33658081665635L775.6698146648705,189.11041505634785L871.2275598943233,18.660730300471187Z" fill="#88c8d0" stroke="#88c8d0"></path><path d="M871.2275598943233,18.660730300471187L775.6698146648705,189.11041505634785L1006.4082910493016,181.41868321225047Z" fill="#7dbdc9" stroke="#7dbdc9"></path><path d="M871.2275598943233,18.660730300471187L1006.4082910493016,181.41868321225047L1022.5756328646094,37.20729469321668Z" fill="#86b2c9" stroke="#86b2c9"></path><path d="M1022.5756328646094,37.20729469321668L1006.4082910493016,181.41868321225047L1178.8970131706446,172.62766705825925Z" fill="#7ba5be" stroke="#7ba5be"></path><path d="M1022.5756328646094,37.20729469321668L1178.8970131706446,172.62766705825925L1170.0028863921762,36.904619140550494Z" fill="#839dbf" stroke="#839dbf"></path><path d="M1170.0028863921762,36.904619140550494L1178.8970131706446,172.62766705825925L1290.7653677556664,64.55279759131372Z" fill="#8192b8" stroke="#8192b8"></path><path d="M1290.7653677556664,64.55279759131372L1178.8970131706446,172.62766705825925L1322.386891292408,240.29471397399902Z" fill="#738baf" stroke="#738baf"></path><path d="M1290.7653677556664,64.55279759131372L1322.386891292408,240.29471397399902L1397.1069042105228,105.14493869617581Z" fill="#7782ad" stroke="#7782ad"></path><path d="M1397.1069042105228,105.14493869617581L1322.386891292408,240.29471397399902L1442.6561989914626,282.5945385172963Z" fill="#617baa" stroke="#617baa"></path><path d="M1397.1069042105228,105.14493869617581L1442.6561989914626,282.5945385172963L1515.9188147541136,93.57760101556778Z" fill="#7180a4" stroke="#7180a4"></path><path d="M1515.9188147541136,93.57760101556778L1442.6561989914626,282.5945385172963L1589.208851493895,269.03227533213794Z" fill="#5e7aa2" stroke="#5e7aa2"></path><path d="M-91.6271823272109,191.0639458335936L-99.03033116832376,355.95868485979736L72.90277403779328,190.25122432038188Z" fill="#c5f6d8" stroke="#c5f6d8"></path><path d="M72.90277403779328,190.25122432038188L-99.03033116832376,355.95868485979736L57.071864772588015,392.5025111809373Z" fill="#aceed9" stroke="#aceed9"></path><path d="M72.90277403779328,190.25122432038188L57.071864772588015,392.5025111809373L182.84858057275414,350.69991300813854Z" fill="#9ee8d5" stroke="#9ee8d5"></path><path d="M72.90277403779328,190.25122432038188L182.84858057275414,350.69991300813854L203.53967014700174,273.6652364116162Z" fill="#a3e9d1" stroke="#a3e9d1"></path><path d="M203.53967014700174,273.6652364116162L182.84858057275414,350.69991300813854L411.322583751753,394.99594604596496Z" fill="#7adad0" stroke="#7adad0"></path><path d="M203.53967014700174,273.6652364116162L411.322583751753,394.99594604596496L401.4422606304288,252.94338625855744Z" fill="#78dacf" stroke="#78dacf"></path><path d="M401.4422606304288,252.94338625855744L411.322583751753,394.99594604596496L498.6559604667127,211.57439824193716Z" fill="#6fd6d0" stroke="#6fd6d0"></path><path d="M498.6559604667127,211.57439824193716L411.322583751753,394.99594604596496L562.4629564583302,427.9205641988665Z" fill="#55cbd4" stroke="#55cbd4"></path><path d="M498.6559604667127,211.57439824193716L562.4629564583302,427.9205641988665L710.6222480535507,363.79733274690807Z" fill="#47c6d7" stroke="#47c6d7"></path><path d="M498.6559604667127,211.57439824193716L710.6222480535507,363.79733274690807L730.8870307076722,269.45639345794916Z" fill="#57c7d3" stroke="#57c7d3"></path><path d="M730.8870307076722,269.45639345794916L710.6222480535507,363.79733274690807L784.9444148596376,410.061729317531Z" fill="#40b5d3" stroke="#40b5d3"></path><path d="M730.8870307076722,269.45639345794916L784.9444148596376,410.061729317531L993.444917332381,352.4993223231286Z" fill="#3dadd1" stroke="#3dadd1"></path><path d="M730.8870307076722,269.45639345794916L993.444917332381,352.4993223231286L775.6698146648705,189.11041505634785Z" fill="#54b7ce" stroke="#54b7ce"></path><path d="M775.6698146648705,189.11041505634785L993.444917332381,352.4993223231286L1006.4082910493016,181.41868321225047Z" fill="#5dafc8" stroke="#5dafc8"></path><path d="M1006.4082910493016,181.41868321225047L993.444917332381,352.4993223231286L1169.4834934920073,318.60973270609975Z" fill="#4c99c2" stroke="#4c99c2"></path><path d="M1006.4082910493016,181.41868321225047L1169.4834934920073,318.60973270609975L1178.8970131706446,172.62766705825925Z" fill="#6098bb" stroke="#6098bb"></path><path d="M1178.8970131706446,172.62766705825925L1169.4834934920073,318.60973270609975L1322.386891292408,240.29471397399902Z" fill="#5888b6" stroke="#5888b6"></path><path d="M1322.386891292408,240.29471397399902L1169.4834934920073,318.60973270609975L1279.4310609810054,390.43287422508Z" fill="#3e7bb8" stroke="#3e7bb8"></path><path d="M1322.386891292408,240.29471397399902L1279.4310609810054,390.43287422508L1442.6561989914626,282.5945385172963Z" fill="#4171b1" stroke="#4171b1"></path><path d="M1442.6561989914626,282.5945385172963L1279.4310609810054,390.43287422508L1450.6986800115556,426.2455391138792Z" fill="#3467af" stroke="#3467af"></path><path d="M1442.6561989914626,282.5945385172963L1450.6986800115556,426.2455391138792L1589.208851493895,269.03227533213794Z" fill="#386ea9" stroke="#386ea9"></path><path d="M1589.208851493895,269.03227533213794L1450.6986800115556,426.2455391138792L1616.4495979249477,411.09728858806193Z" fill="#3266a5" stroke="#3266a5"></path><path d="M-99.03033116832376,355.95868485979736L-118.81144646555185,867.355195004493L-71.75020666792989,578.0499887745827Z" fill="#97b1cb" stroke="#97b1cb"></path><path d="M-99.03033116832376,355.95868485979736L-71.75020666792989,578.0499887745827L57.071864772588015,392.5025111809373Z" fill="#9ed7d8" stroke="#9ed7d8"></path><path d="M57.071864772588015,392.5025111809373L-71.75020666792989,578.0499887745827L66.70925796031952,542.282936386764Z" fill="#97cad3" stroke="#97cad3"></path><path d="M57.071864772588015,392.5025111809373L66.70925796031952,542.282936386764L182.84858057275414,350.69991300813854Z" fill="#8fd3d3" stroke="#8fd3d3"></path><path d="M182.84858057275414,350.69991300813854L66.70925796031952,542.282936386764L276.1556184478104,567.4033064860851Z" fill="#7ec3cd" stroke="#7ec3cd"></path><path d="M182.84858057275414,350.69991300813854L276.1556184478104,567.4033064860851L411.322583751753,394.99594604596496Z" fill="#6fc6cb" stroke="#6fc6cb"></path><path d="M411.322583751753,394.99594604596496L276.1556184478104,567.4033064860851L408.2897557877004,505.9208031836897Z" fill="#5fb6ca" stroke="#5fb6ca"></path><path d="M411.322583751753,394.99594604596496L408.2897557877004,505.9208031836897L495.1629508472979,498.71501974761486Z" fill="#54b6cd" stroke="#54b6cd"></path><path d="M411.322583751753,394.99594604596496L495.1629508472979,498.71501974761486L562.4629564583302,427.9205641988665Z" fill="#4eb9d0" stroke="#4eb9d0"></path><path d="M562.4629564583302,427.9205641988665L495.1629508472979,498.71501974761486L670.8175448700786,567.7218527812511Z" fill="#3ba8d0" stroke="#3ba8d0"></path><path d="M562.4629564583302,427.9205641988665L670.8175448700786,567.7218527812511L710.6222480535507,363.79733274690807Z" fill="#3caad0" stroke="#3caad0"></path><path d="M710.6222480535507,363.79733274690807L670.8175448700786,567.7218527812511L784.9444148596376,410.061729317531Z" fill="#39a4cf" stroke="#39a4cf"></path><path d="M784.9444148596376,410.061729317531L670.8175448700786,567.7218527812511L851.1676878668368,543.5832921043038Z" fill="#3493cb" stroke="#3493cb"></path><path d="M784.9444148596376,410.061729317531L851.1676878668368,543.5832921043038L941.2057750951499,504.45603906176984Z" fill="#328fcb" stroke="#328fcb"></path><path d="M784.9444148596376,410.061729317531L941.2057750951499,504.45603906176984L993.444917332381,352.4993223231286Z" fill="#3696cb" stroke="#3696cb"></path><path d="M993.444917332381,352.4993223231286L941.2057750951499,504.45603906176984L1073.2115967292339,525.6500116176903Z" fill="#3282c3" stroke="#3282c3"></path><path d="M993.444917332381,352.4993223231286L1073.2115967292339,525.6500116176903L1169.4834934920073,318.60973270609975Z" fill="#3584c1" stroke="#3584c1"></path><path d="M1169.4834934920073,318.60973270609975L1073.2115967292339,525.6500116176903L1260.25895325467,487.1167927701026Z" fill="#316fb9" stroke="#316fb9"></path><path d="M1169.4834934920073,318.60973270609975L1260.25895325467,487.1167927701026L1279.4310609810054,390.43287422508Z" fill="#346fb7" stroke="#346fb7"></path><path d="M1279.4310609810054,390.43287422508L1260.25895325467,487.1167927701026L1450.6986800115556,426.2455391138792Z" fill="#305cb0" stroke="#305cb0"></path><path d="M1450.6986800115556,426.2455391138792L1260.25895325467,487.1167927701026L1444.6037158090621,567.1965900622308Z" fill="#2a4eaa" stroke="#2a4eaa"></path><path d="M1450.6986800115556,426.2455391138792L1444.6037158090621,567.1965900622308L1566.000580508262,465.3182509448379Z" fill="#2a4fa3" stroke="#2a4fa3"></path><path d="M1450.6986800115556,426.2455391138792L1566.000580508262,465.3182509448379L1616.4495979249477,411.09728858806193Z" fill="#2d59a2" stroke="#2d59a2"></path><path d="M1616.4495979249477,411.09728858806193L1566.000580508262,465.3182509448379L1600.3050432354212,707.218369524926Z" fill="#274599" stroke="#274599"></path><path d="M-71.75020666792989,578.0499887745827L-118.81144646555185,867.355195004493L-51.514540035277605,708.1825161259621Z" fill="#9592bc" stroke="#9592bc"></path><path d="M-71.75020666792989,578.0499887745827L-51.514540035277605,708.1825161259621L67.63776322826743,619.3490044679493Z" fill="#97a8c4" stroke="#97a8c4"></path><path d="M-71.75020666792989,578.0499887745827L67.63776322826743,619.3490044679493L66.70925796031952,542.282936386764Z" fill="#94b5c9" stroke="#94b5c9"></path><path d="M66.70925796031952,542.282936386764L67.63776322826743,619.3490044679493L276.1556184478104,567.4033064860851Z" fill="#81afc5" stroke="#81afc5"></path><path d="M276.1556184478104,567.4033064860851L67.63776322826743,619.3490044679493L281.6031558997929,696.2762619461864Z" fill="#759dbb" stroke="#759dbb"></path><path d="M276.1556184478104,567.4033064860851L281.6031558997929,696.2762619461864L334.2298412974924,699.2351030465215Z" fill="#6690b5" stroke="#6690b5"></path><path d="M276.1556184478104,567.4033064860851L334.2298412974924,699.2351030465215L408.2897557877004,505.9208031836897Z" fill="#609ebe" stroke="#609ebe"></path><path d="M408.2897557877004,505.9208031836897L334.2298412974924,699.2351030465215L578.3051823545247,618.3283375762403Z" fill="#4f93be" stroke="#4f93be"></path><path d="M408.2897557877004,505.9208031836897L578.3051823545247,618.3283375762403L495.1629508472979,498.71501974761486Z" fill="#47a2c8" stroke="#47a2c8"></path><path d="M495.1629508472979,498.71501974761486L578.3051823545247,618.3283375762403L670.8175448700786,567.7218527812511Z" fill="#3997c8" stroke="#3997c8"></path><path d="M670.8175448700786,567.7218527812511L578.3051823545247,618.3283375762403L619.1556073911488,719.2658172547817Z" fill="#367fbe" stroke="#367fbe"></path><path d="M670.8175448700786,567.7218527812511L619.1556073911488,719.2658172547817L796.2467851303518,662.20314941369Z" fill="#3374ba" stroke="#3374ba"></path><path d="M670.8175448700786,567.7218527812511L796.2467851303518,662.20314941369L851.1676878668368,543.5832921043038Z" fill="#327cc0" stroke="#327cc0"></path><path d="M851.1676878668368,543.5832921043038L796.2467851303518,662.20314941369L925.6962151732296,677.9494904726744Z" fill="#2d6bba" stroke="#2d6bba"></path><path d="M851.1676878668368,543.5832921043038L925.6962151732296,677.9494904726744L941.2057750951499,504.45603906176984Z" fill="#2e72be" stroke="#2e72be"></path><path d="M941.2057750951499,504.45603906176984L925.6962151732296,677.9494904726744L1073.2115967292339,525.6500116176903Z" fill="#2d6bba" stroke="#2d6bba"></path><path d="M1073.2115967292339,525.6500116176903L925.6962151732296,677.9494904726744L1101.5498026739806,718.1596273463219Z" fill="#2b51ae" stroke="#2b51ae"></path><path d="M1073.2115967292339,525.6500116176903L1101.5498026739806,718.1596273463219L1282.7899976167828,686.525500472635Z" fill="#2940a6" stroke="#2940a6"></path><path d="M1073.2115967292339,525.6500116176903L1282.7899976167828,686.525500472635L1260.25895325467,487.1167927701026Z" fill="#2b4eac" stroke="#2b4eac"></path><path d="M1260.25895325467,487.1167927701026L1282.7899976167828,686.525500472635L1397.9662190750241,619.8661759402603Z" fill="#2838a2" stroke="#2838a2"></path><path d="M1260.25895325467,487.1167927701026L1397.9662190750241,619.8661759402603L1444.6037158090621,567.1965900622308Z" fill="#293da3" stroke="#293da3"></path><path d="M1444.6037158090621,567.1965900622308L1397.9662190750241,619.8661759402603L1600.3050432354212,707.218369524926Z" fill="#262a93" stroke="#262a93"></path><path d="M1444.6037158090621,567.1965900622308L1600.3050432354212,707.218369524926L1566.000580508262,465.3182509448379Z" fill="#263796" stroke="#263796"></path><path d="M-51.514540035277605,708.1825161259621L-118.81144646555185,867.355195004493L36.727085653692484,844.6785269491374Z" fill="#9280af" stroke="#9280af"></path><path d="M-51.514540035277605,708.1825161259621L36.727085653692484,844.6785269491374L67.63776322826743,619.3490044679493Z" fill="#918fb7" stroke="#918fb7"></path><path d="M67.63776322826743,619.3490044679493L36.727085653692484,844.6785269491374L230.0146764703095,844.924148702994Z" fill="#817dad" stroke="#817dad"></path><path d="M67.63776322826743,619.3490044679493L230.0146764703095,844.924148702994L281.6031558997929,696.2762619461864Z" fill="#7585b0" stroke="#7585b0"></path><path d="M281.6031558997929,696.2762619461864L230.0146764703095,844.924148702994L334.2298412974924,699.2351030465215Z" fill="#6678a9" stroke="#6678a9"></path><path d="M334.2298412974924,699.2351030465215L230.0146764703095,844.924148702994L422.02076612971723,782.9616234451532Z" fill="#5d6ea6" stroke="#5d6ea6"></path><path d="M334.2298412974924,699.2351030465215L422.02076612971723,782.9616234451532L578.3051823545247,618.3283375762403Z" fill="#4c7ab3" stroke="#4c7ab3"></path><path d="M578.3051823545247,618.3283375762403L422.02076612971723,782.9616234451532L619.1556073911488,719.2658172547817Z" fill="#3c73b5" stroke="#3c73b5"></path><path d="M619.1556073911488,719.2658172547817L422.02076612971723,782.9616234451532L621.4148439187557,789.3545081745833Z" fill="#3863ae" stroke="#3863ae"></path><path d="M619.1556073911488,719.2658172547817L621.4148439187557,789.3545081745833L796.2467851303518,662.20314941369Z" fill="#3162b1" stroke="#3162b1"></path><path d="M796.2467851303518,662.20314941369L621.4148439187557,789.3545081745833L867.5459599960595,845.0796853657812Z" fill="#2d4faa" stroke="#2d4faa"></path><path d="M796.2467851303518,662.20314941369L867.5459599960595,845.0796853657812L925.6962151732296,677.9494904726744Z" fill="#2b4fad" stroke="#2b4fad"></path><path d="M925.6962151732296,677.9494904726744L867.5459599960595,845.0796853657812L1005.3848580177873,825.5647951550782Z" fill="#2938a1" stroke="#2938a1"></path><path d="M925.6962151732296,677.9494904726744L1005.3848580177873,825.5647951550782L1101.5498026739806,718.1596273463219Z" fill="#2939a2" stroke="#2939a2"></path><path d="M1101.5498026739806,718.1596273463219L1005.3848580177873,825.5647951550782L1098.4893647767603,856.5730429720134Z" fill="#272597" stroke="#272597"></path><path d="M1101.5498026739806,718.1596273463219L1098.4893647767603,856.5730429720134L1330.0811763480306,824.1916420497Z" fill="#251790" stroke="#251790"></path><path d="M1101.5498026739806,718.1596273463219L1330.0811763480306,824.1916420497L1282.7899976167828,686.525500472635Z" fill="#261b93" stroke="#261b93"></path><path d="M1282.7899976167828,686.525500472635L1330.0811763480306,824.1916420497L1397.9662190750241,619.8661759402603Z" fill="#261792" stroke="#261792"></path><path d="M1397.9662190750241,619.8661759402603L1330.0811763480306,824.1916420497L1466.8626559060067,856.2900498323143Z" fill="#230686" stroke="#230686"></path><path d="M1397.9662190750241,619.8661759402603L1466.8626559060067,856.2900498323143L1600.3050432354212,707.218369524926Z" fill="#231086" stroke="#231086"></path><path d="M1600.3050432354212,707.218369524926L1466.8626559060067,856.2900498323143L1571.2682928331196,811.6693520452827Z" fill="#21007a" stroke="#21007a"></path><path d="M1600.3050432354212,707.218369524926L1571.2682928331196,811.6693520452827L1539.8381061013788,1005.291739795357Z" fill="#200072" stroke="#200072"></path><path d="M-118.81144646555185,867.355195004493L-77.84491404891014,982.3675828892738L36.727085653692484,844.6785269491374Z" fill="#9080a3" stroke="#9080a3"></path><path d="M36.727085653692484,844.6785269491374L-77.84491404891014,982.3675828892738L75.93466241843998,1008.9932501222938Z" fill="#8d7f9a" stroke="#8d7f9a"></path><path d="M36.727085653692484,844.6785269491374L75.93466241843998,1008.9932501222938L230.0146764703095,844.924148702994Z" fill="#7e789c" stroke="#7e789c"></path><path d="M230.0146764703095,844.924148702994L75.93466241843998,1008.9932501222938L280.5907644331455,920.8797343913466Z" fill="#707396" stroke="#707396"></path><path d="M230.0146764703095,844.924148702994L280.5907644331455,920.8797343913466L422.02076612971723,782.9616234451532Z" fill="#5e6c9c" stroke="#5e6c9c"></path><path d="M422.02076612971723,782.9616234451532L280.5907644331455,920.8797343913466L480.94691237434745,880.7890576869249Z" fill="#50679d" stroke="#50679d"></path><path d="M422.02076612971723,782.9616234451532L480.94691237434745,880.7890576869249L621.4148439187557,789.3545081745833Z" fill="#3f5fa5" stroke="#3f5fa5"></path><path d="M480.94691237434745,880.7890576869249L280.5907644331455,920.8797343913466L344.6929754130542,998.9499128144234Z" fill="#536892" stroke="#536892"></path><path d="M480.94691237434745,880.7890576869249L344.6929754130542,998.9499128144234L575.5501896422356,931.8429726921022Z" fill="#426295" stroke="#426295"></path><path d="M480.94691237434745,880.7890576869249L575.5501896422356,931.8429726921022L621.4148439187557,789.3545081745833Z" fill="#355ca0" stroke="#355ca0"></path><path d="M621.4148439187557,789.3545081745833L575.5501896422356,931.8429726921022L692.5144715700299,917.3803327884525Z" fill="#30569e" stroke="#30569e"></path><path d="M621.4148439187557,789.3545081745833L692.5144715700299,917.3803327884525L867.5459599960595,845.0796853657812Z" fill="#2d4da0" stroke="#2d4da0"></path><path d="M867.5459599960595,845.0796853657812L692.5144715700299,917.3803327884525L858.8403296470642,1025.036180857569Z" fill="#284594" stroke="#284594"></path><path d="M867.5459599960595,845.0796853657812L858.8403296470642,1025.036180857569L1026.3775404822081,965.0994617678225Z" fill="#25398e" stroke="#25398e"></path><path d="M867.5459599960595,845.0796853657812L1026.3775404822081,965.0994617678225L1005.3848580177873,825.5647951550782Z" fill="#263293" stroke="#263293"></path><path d="M1005.3848580177873,825.5647951550782L1026.3775404822081,965.0994617678225L1098.4893647767603,856.5730429720134Z" fill="#25288e" stroke="#25288e"></path><path d="M1098.4893647767603,856.5730429720134L1026.3775404822081,965.0994617678225L1165.031362529844,932.1118268184364Z" fill="#232186" stroke="#232186"></path><path d="M1098.4893647767603,856.5730429720134L1165.031362529844,932.1118268184364L1330.0811763480306,824.1916420497Z" fill="#231486" stroke="#231486"></path><path d="M1330.0811763480306,824.1916420497L1165.031362529844,932.1118268184364L1234.530005576089,1031.8231095559895Z" fill="#220e7c" stroke="#220e7c"></path><path d="M1330.0811763480306,824.1916420497L1234.530005576089,1031.8231095559895L1479.5101304445416,1000.6211777497083Z" fill="#200172" stroke="#200172"></path><path d="M1330.0811763480306,824.1916420497L1479.5101304445416,1000.6211777497083L1466.8626559060067,856.2900498323143Z" fill="#200075" stroke="#200075"></path><path d="M1466.8626559060067,856.2900498323143L1479.5101304445416,1000.6211777497083L1539.8381061013788,1005.291739795357Z" fill="#1e0068" stroke="#1e0068"></path><path d="M1466.8626559060067,856.2900498323143L1539.8381061013788,1005.291739795357L1571.2682928331196,811.6693520452827Z" fill="#1f006e" stroke="#1f006e"></path><path d="M75.93466241843998,1008.9932501222938L858.8403296470642,1025.036180857569L344.6929754130542,998.9499128144234Z" fill="#48658b" stroke="#48658b"></path><path d="M75.93466241843998,1008.9932501222938L344.6929754130542,998.9499128144234L280.5907644331455,920.8797343913466Z" fill="#68718e" stroke="#68718e"></path><path d="M344.6929754130542,998.9499128144234L858.8403296470642,1025.036180857569L575.5501896422356,931.8429726921022Z" fill="#2f5a91" stroke="#2f5a91"></path><path d="M575.5501896422356,931.8429726921022L858.8403296470642,1025.036180857569L692.5144715700299,917.3803327884525Z" fill="#2b4f92" stroke="#2b4f92"></path><path d="M858.8403296470642,1025.036180857569L1234.530005576089,1031.8231095559895L1026.3775404822081,965.0994617678225Z" fill="#22297e" stroke="#22297e"></path><path d="M1026.3775404822081,965.0994617678225L1234.530005576089,1031.8231095559895L1165.031362529844,932.1118268184364Z" fill="#211c7c" stroke="#211c7c"></path><path d="M1234.530005576089,1031.8231095559895L1539.8381061013788,1005.291739795357L1479.5101304445416,1000.6211777497083Z" fill="#1e0066" stroke="#1e0066"></path></g></svg>